<svg viewBox="0 0 128 128" xmlns="http://www.w3.org/2000/svg">
  <path d="M117.8 77.2c-5.5-8.5-12.8-15.5-21-20.7-3.8-2.4-7.8-4.5-12-6.1 4.7-.6 9.4-.4 14 .4-7-3.8-14.8-6.1-23.1-6.7 1.8-.4 3.7-.6 5.5-.6-9.1-1.3-18.5-.8-27.5 1.5 5.5-1.9 11.2-3.1 17.1-3.7-17-1.1-33.8 4-48 14.3 12.3-5.2 25.5-7.7 38.8-7.3-24.4 2.8-46.4 16.5-60 36.8 19-14 42-20.8 65-19.1-15.2 4.4-28.7 13.9-38.1 27 20-11.8 43.1-17.5 66.2-16.1-9.9 5.8-18.1 14.2-23.9 24.3 26.2-13.4 55.7-18.7 85.1-15.1-11.4 5.3-21.3 13.7-28.8 24.1 33.6-13.4 70.3-15.7 105.4-6.6-14.3 3.6-27.3 11.4-37.6 22.2 42.6-10.9 87.2-7.8 127.8 8.8-19.1.5-37.5 7.4-52.4 19.8 47.7-13.5 98.4-11.9 144.9 4.6-28.5-2-55.8 6.5-77.9 24.2 49-21 103-24.7 154.5-10.6-27.5-6.1-55.9-4-82.1 6.1" fill="#FA7343"/>
</svg>
